<svg width="120" height="48" viewBox="0 0 120 48" fill="none" xmlns="http://www.w3.org/2000/svg">
<path d="M45.656 23.3979V29.9426H43.1744V23.7156C43.1744 22.0636 42.3255 21.1104 40.8234 21.1104C39.4521 21.1104 38.5378 22.0636 38.4072 23.3343V23.3979V29.9426H35.991V23.7156C35.991 22.0636 35.0766 21.1104 33.7706 21.1104C32.2033 21.1104 31.2237 22.2542 31.2237 23.7156V29.879H28.8074V19.0771H31.0931V20.5385C31.6808 19.5855 32.6604 18.8865 34.293 18.8865C35.8603 18.8865 37.1011 19.5855 37.8195 20.8563C38.4725 19.7125 39.7132 18.8865 41.4112 18.8865C43.9581 18.95 45.656 20.7292 45.656 23.3979Z" fill="black"/>
<path d="M48.007 35.2803L50.7498 29.1169L46.3091 19.1409H49.0519L52.0559 26.5117L55.0599 19.1409H57.7374L50.6192 35.2803H48.007Z" fill="black"/>
<path d="M79.4185 23.3979V29.9426H76.9365V23.7156C76.9365 22.0636 76.0883 21.1104 74.5859 21.1104C73.2145 21.1104 72.3003 22.0636 72.1696 23.3343V23.3979V29.9426H69.688V23.7156C69.688 22.0636 68.7738 21.1104 67.4677 21.1104C65.9004 21.1104 64.9208 22.2542 64.9208 23.7156V29.879H62.5046V19.0771H64.7902V20.5385C65.3779 19.5855 66.3575 18.8865 67.9901 18.8865C69.5574 18.8865 70.7982 19.5855 71.5166 20.8563C72.1696 19.7125 73.4104 18.8865 75.1086 18.8865C77.7205 18.95 79.4185 20.7292 79.4185 23.3979Z" fill="black"/>
<path d="M84.4468 15.3925C84.4468 16.2186 83.7285 16.854 82.8795 16.854C82.0305 16.854 81.3771 16.2186 81.3771 15.3925C81.3771 14.5665 82.0962 13.9311 82.8795 13.9311C83.7934 13.8675 84.4468 14.5665 84.4468 15.3925ZM81.7042 29.9433V19.1414H84.1205V29.9433H81.7042Z" fill="black"/>
<path d="M96.4626 23.3979V29.9426H93.9814V23.7156C93.9814 22.0636 93.0017 21.1104 91.565 21.1104C89.9977 21.1104 89.0181 22.2542 89.0181 23.7156V29.879H86.6017V19.0771H88.8874V20.5385C89.475 19.5855 90.5204 18.8865 92.1527 18.8865C94.634 18.95 96.4626 20.6021 96.4626 23.3979Z" fill="black"/>
<path d="M107.108 29.9428V28.4178C106.52 29.4345 105.148 30.1334 103.45 30.1334C100.381 30.1334 98.0956 27.9731 98.0956 24.5418C98.0956 21.1106 100.381 18.9503 103.45 18.9503C105.148 18.9503 106.389 19.5857 106.977 20.4752V13.5493H109.393V29.9428H107.108ZM100.577 24.5418C100.577 26.8293 101.949 28.1001 103.842 28.1001C105.671 28.1001 106.977 26.9564 106.977 24.796V24.2241C106.977 22.0638 105.671 20.92 103.842 20.92C101.949 20.92 100.577 22.2544 100.577 24.5418Z" fill="black"/>
<path d="M7.7059 22.8676C8.42288 22.8676 9.00415 22.298 9.00415 21.5954C9.00415 20.8927 8.42288 20.3232 7.7059 20.3232C6.98888 20.3232 6.40762 20.8927 6.40762 21.5954C6.40762 22.298 6.98888 22.8676 7.7059 22.8676Z" fill="black"/>
<path d="M13.4441 27.8536L9.32019 17.4136L15.7734 26.9555L13.4441 27.8536Z" fill="black"/>
<path fill-rule="evenodd" clip-rule="evenodd" d="M8.5332 12.8344L8.52514 12.8333C8.38744 12.814 8.19879 12.811 7.86484 12.811C7.30921 12.811 6.74524 12.8959 6.16818 13.0729C4.38774 13.6698 2.89455 15.2352 2.09104 17.7258C1.32248 20.1518 1.37069 23.0817 2.28216 25.9703C3.8145 30.7148 7.26246 33.8748 10.4963 34.2634L10.4999 34.2639C10.6955 34.2878 10.9071 34.2896 11.1869 34.2896C11.7426 34.2896 12.3066 34.2048 12.8836 34.0278C14.6823 33.425 16.1958 31.8838 16.9546 29.3945L16.9571 29.3863L16.9597 29.3781C17.7293 26.9514 17.6815 24.0202 16.7695 21.1302C15.2409 16.3972 11.7944 13.2565 8.54127 12.8354L8.5332 12.8344ZM18.251 20.6691C19.2438 23.8123 19.3202 27.0678 18.442 29.8367C17.5637 32.718 15.7308 34.7013 13.3634 35.4871C12.6379 35.7116 11.9124 35.8238 11.1869 35.8238C10.9196 35.8238 10.6141 35.8238 10.3087 35.7864C6.26108 35.3 2.44262 31.5206 0.800681 26.4316C-0.192118 23.2884 -0.268487 20.0329 0.609758 17.2639C1.52619 14.4201 3.32087 12.3994 5.68831 11.6136C6.41382 11.3891 7.13932 11.2768 7.86484 11.2768C8.17031 11.2768 8.47577 11.2768 8.74311 11.3143C12.7906 11.8381 16.6091 15.58 18.251 20.6691Z" fill="black"/>
</svg>
